<svg width="385" height="218" viewBox="0 0 385 218" fill="none" xmlns="http://www.w3.org/2000/svg">
<path d="M32.12 18.05C43.4867 18.05 52.91 21.3133 60.39 27.84C67.9433 34.3667 71.72 42.7633 71.72 53.03C71.72 63.37 67.9433 71.95 60.39 78.77C52.8367 85.59 43.56 89 32.56 89H4.07V88.12C7.88333 87.8267 10.23 87.5333 11.11 87.24C11.99 86.9467 12.43 86.25 12.43 85.15V21.9C12.43 20.8 11.99 20.1033 11.11 19.81C10.23 19.5167 7.88333 19.2233 4.07 18.93V18.05H32.12ZM32.56 87.79C40.5533 87.79 47.0067 84.9667 51.92 79.32C56.9067 73.6 59.4 64.8367 59.4 53.03C59.4 41.2233 56.9433 32.6433 52.03 27.29C47.19 21.9367 40.5533 19.26 32.12 19.26L23.65 19.15V87.79H32.56ZM108.932 86.91C115.898 86.91 121.142 83.7567 124.662 77.45L125.542 77.89C123.708 82.1433 121.032 85.26 117.512 87.24C114.065 89.22 110.252 90.21 106.072 90.21C98.6651 90.21 92.6518 87.9367 88.0318 83.39C83.4118 78.77 81.1018 72.7567 81.1018 65.35C81.1018 57.87 83.3751 51.6367 87.9218 46.65C92.4685 41.59 97.9685 39.06 104.422 39.06C110.948 39.06 116.045 41.26 119.712 45.66C123.378 50.06 125.542 55.67 126.202 62.49H92.4318V65.24C92.4318 72.72 93.9351 78.22 96.9418 81.74C99.9485 85.1867 103.945 86.91 108.932 86.91ZM104.202 39.94C100.608 39.94 97.8218 41.59 95.8418 44.89C93.9351 48.1167 92.8351 53.58 92.5418 61.28H114.322C114.322 53.4333 113.478 47.9333 111.792 44.78C110.105 41.5533 107.575 39.94 104.202 39.94ZM165.767 40.38H186.447V41.04C183.44 41.48 181.057 42.6167 179.297 44.45C177.537 46.21 175.777 49.2167 174.017 53.47L159.057 89.88H155.867L136.837 45.88C135.957 44.12 135.04 42.91 134.087 42.25C133.133 41.59 131.557 41.1867 129.357 41.04V40.38H153.997V41.04C150.843 41.1867 148.827 41.6633 147.947 42.47C147.14 43.2033 147.14 44.56 147.947 46.54L158.727 73.6L161.697 80.86L164.557 73.6L172.697 53.25C175.63 45.4767 173.32 41.4067 165.767 41.04V40.38ZM201.135 29.49C199.302 29.49 197.762 28.9033 196.515 27.73C195.342 26.4833 194.755 24.9433 194.755 23.11C194.755 21.35 195.342 19.8833 196.515 18.71C197.762 17.4633 199.302 16.84 201.135 16.84C203.042 16.84 204.582 17.4267 205.755 18.6C207.002 19.7733 207.625 21.2767 207.625 23.11C207.625 24.9433 207.038 26.4833 205.865 27.73C204.692 28.9033 203.115 29.49 201.135 29.49ZM189.585 89V88.12C193.032 87.8267 195.122 87.5333 195.855 87.24C196.662 86.9467 197.065 86.2133 197.065 85.04V44.23C197.065 42.91 196.588 42.1033 195.635 41.81C194.755 41.5167 192.518 41.2967 188.925 41.15V40.38C198.385 40.0133 204.582 39.6833 207.515 39.39V85.04C207.515 86.2133 207.882 86.9467 208.615 87.24C209.422 87.5333 211.512 87.8267 214.885 88.12V89H189.585ZM244.441 34L231.791 18.27H232.671L245.211 25.86L257.641 18.27H258.521L245.981 34H244.441ZM244.551 90.21C237.511 90.21 231.755 87.8267 227.281 83.06C222.881 78.2933 220.681 72.3533 220.681 65.24C220.681 57.76 223.028 51.5267 227.721 46.54C232.488 41.5533 238.281 39.06 245.101 39.06C250.235 39.06 254.378 40.3067 257.531 42.8C260.758 45.2933 262.481 48.96 262.701 53.8L252.581 55.45C252.655 49.8033 252.031 45.8067 250.711 43.46C249.465 41.1133 247.485 39.94 244.771 39.94C236.265 39.94 232.011 48.08 232.011 64.36C232.011 72.2067 233.441 78 236.301 81.74C239.235 85.4067 243.195 87.24 248.181 87.24C254.121 87.24 258.521 84.49 261.381 78.99L262.261 79.43C260.721 82.8767 258.375 85.5533 255.221 87.46C252.141 89.2933 248.585 90.21 244.551 90.21ZM58.63 181.61C65.3033 190.117 69.74 195.323 71.94 197.23V198H57.42L29.7 161.15L23.65 167.09V194.15C23.65 195.25 24.09 195.947 24.97 196.24C25.85 196.533 28.1967 196.827 32.01 197.12V198H4.07V197.12C7.88333 196.827 10.23 196.533 11.11 196.24C11.99 195.947 12.43 195.25 12.43 194.15V130.9C12.43 129.8 11.99 129.103 11.11 128.81C10.23 128.517 7.88333 128.223 4.07 127.93V127.05H32.01V127.93C28.1967 128.223 25.85 128.517 24.97 128.81C24.09 129.103 23.65 129.8 23.65 130.9V165.44L47.85 141.24C55.6967 133.98 54.2667 129.507 43.56 127.82V127.05H71.28V127.82C68.0533 128.187 65.0467 129.213 62.26 130.9C59.5467 132.587 55.99 135.483 51.59 139.59L37.07 153.89L58.63 181.61ZM100.054 199.21C93.0869 199.21 87.1836 196.79 82.3436 191.95C77.5769 187.11 75.1936 181.023 75.1936 173.69C75.1936 166.357 77.6136 160.27 82.4536 155.43C87.3669 150.517 93.2336 148.06 100.054 148.06C106.947 148.06 112.777 150.517 117.544 155.43C122.384 160.27 124.804 166.32 124.804 173.58C124.804 180.987 122.384 187.11 117.544 191.95C112.704 196.79 106.874 199.21 100.054 199.21ZM100.054 198.44C109 198.44 113.474 190.153 113.474 173.58C113.474 157.153 109 148.94 100.054 148.94C91.0336 148.94 86.5236 157.19 86.5236 173.69C86.5236 190.19 91.0336 198.44 100.054 198.44ZM182.151 194.15C182.151 195.47 182.591 196.277 183.471 196.57C184.351 196.863 186.588 197.047 190.181 197.12V198C180.795 198.367 174.671 198.697 171.811 198.99V190.3C168.731 196.24 163.488 199.21 156.081 199.21C149.775 199.21 144.458 196.9 140.131 192.28C135.878 187.66 133.751 181.463 133.751 173.69C133.751 166.283 136.135 160.16 140.901 155.32C145.668 150.48 151.498 148.06 158.391 148.06C163.231 148.06 167.631 149.307 171.591 151.8V130.9C171.591 129.58 171.115 128.773 170.161 128.48C169.281 128.187 167.045 128.003 163.451 127.93V127.05C172.911 126.683 179.108 126.353 182.041 126.06V135.85L182.151 194.15ZM158.721 197.45C164.808 197.45 169.135 194.333 171.701 188.1L171.591 157.52C168.218 151.8 163.855 148.94 158.501 148.94C154.248 148.94 150.948 151.067 148.601 155.32C146.255 159.573 145.081 165.697 145.081 173.69C145.081 189.53 149.628 197.45 158.721 197.45ZM245.352 191.07L246.122 191.51C244.142 196.643 240.548 199.21 235.342 199.21C232.262 199.21 229.878 198.403 228.192 196.79C226.578 195.103 225.772 192.83 225.772 189.97V188.98C221.518 195.8 216.128 199.21 209.602 199.21C205.495 199.21 202.195 198 199.702 195.58C197.208 193.087 195.962 189.787 195.962 185.68C195.962 182.233 197.062 179.52 199.262 177.54C201.462 175.487 205.018 173.873 209.932 172.7L225.552 168.74V159.06C225.552 155.687 224.928 153.157 223.682 151.47C222.508 149.71 220.455 148.83 217.522 148.83C210.995 148.83 207.988 153.89 208.502 164.01L198.272 163.02C198.052 158.62 199.665 155.027 203.112 152.24C206.558 149.453 211.435 148.06 217.742 148.06C229.988 148.06 236.112 153.047 236.112 163.02V189.09C236.112 193.343 237.432 195.47 240.072 195.47C242.198 195.47 243.958 194.003 245.352 191.07ZM215.542 194.7C219.355 194.7 222.692 192.427 225.552 187.88V169.62L220.272 171.05C215.212 172.443 211.765 174.02 209.932 175.78C208.172 177.467 207.292 180.033 207.292 183.48C207.292 187 207.988 189.75 209.382 191.73C210.848 193.71 212.902 194.7 215.542 194.7ZM284.77 148.17H285.32V159.28C283.707 159.133 282.46 159.06 281.58 159.06C273.367 159.06 268.234 162.433 266.18 169.18V194.04C266.18 195.213 266.657 195.947 267.61 196.24C268.637 196.533 271.35 196.827 275.75 197.12V198H248.25V197.12C251.697 196.827 253.787 196.533 254.52 196.24C255.327 195.947 255.73 195.213 255.73 194.04V153.34C255.73 151.947 255.254 151.103 254.3 150.81C253.42 150.517 251.184 150.333 247.59 150.26V149.38C256.977 149.013 263.137 148.683 266.07 148.39V167.42C267.977 161.92 270.58 157.337 273.88 153.67C277.18 150.003 280.81 148.17 284.77 148.17ZM303.641 138.49C301.808 138.49 300.268 137.903 299.021 136.73C297.848 135.483 297.261 133.943 297.261 132.11C297.261 130.35 297.848 128.883 299.021 127.71C300.268 126.463 301.808 125.84 303.641 125.84C305.548 125.84 307.088 126.427 308.261 127.6C309.508 128.773 310.131 130.277 310.131 132.11C310.131 133.943 309.545 135.483 308.371 136.73C307.198 137.903 305.621 138.49 303.641 138.49ZM292.091 198V197.12C295.538 196.827 297.628 196.533 298.361 196.24C299.168 195.947 299.571 195.213 299.571 194.04V153.23C299.571 151.91 299.095 151.103 298.141 150.81C297.261 150.517 295.025 150.297 291.431 150.15V149.38C300.891 149.013 307.088 148.683 310.021 148.39V194.04C310.021 195.213 310.388 195.947 311.121 196.24C311.928 196.533 314.018 196.827 317.391 197.12V198H292.091ZM371.258 194.04C371.258 195.213 371.624 195.947 372.358 196.24C373.164 196.533 375.254 196.827 378.628 197.12V198H360.808V161.37C360.808 154.623 357.654 151.25 351.348 151.25C349.148 151.25 346.948 151.91 344.748 153.23C342.621 154.55 340.861 156.457 339.468 158.95V194.04C339.468 195.213 339.834 195.947 340.568 196.24C341.374 196.533 343.464 196.827 346.838 197.12V198H321.538V197.12C324.984 196.827 327.074 196.533 327.808 196.24C328.614 195.947 329.018 195.213 329.018 194.04V153.34C329.018 151.947 328.541 151.103 327.588 150.81C326.708 150.517 324.471 150.333 320.878 150.26V149.38C330.264 149.013 336.424 148.683 339.358 148.39V157.63C341.118 154.697 343.464 152.387 346.398 150.7C349.331 148.94 352.448 148.06 355.748 148.06C360.294 148.06 363.998 149.417 366.858 152.13C369.791 154.843 371.258 158.437 371.258 162.91V194.04Z" fill="#FCFCFC"/>
<path d="M296.75 59.7501L348.25 59.75" stroke="#FCFCFC"/>
<path d="M322.5 34L322.5 85.5" stroke="#FCFCFC"/>
</svg>
