<svg width="1022" height="675" viewBox="0 0 1022 675" fill="none" xmlns="http://www.w3.org/2000/svg">
<path d="M73.4473 642.849L72.7609 644.828L85.5676 658.646L95.6095 658.186L127.834 656.708L143.159 666.442L147.484 670.841L152.582 672.467L169.917 675L173.371 672.418L176.222 667.947L180.949 663.284L196.14 656.802L200.298 651.085L193.425 642.828V637.85L191.563 635.961L156.543 600.414L141.218 601.997L128.409 595.044L112.417 596.449L117.487 602.018L122.346 607.32L125.778 612.284V615.151L100.537 618.924L72.7871 623.073L65.9756 621.47L67.3222 625.77L69.2225 628.824L71.6781 630.634L74.8463 631.256V634.141L72.6283 638.91L73.4473 642.849Z" fill="#E5E5DF" fill-opacity="0.8"/>
<path d="M73.4473 642.849L72.7609 644.828L85.5676 658.646L95.6095 658.186L127.834 656.708L143.159 666.442L147.484 670.841L152.582 672.467L169.917 675L173.371 672.418L176.222 667.947L180.949 663.284L196.14 656.802L200.298 651.085L193.425 642.828V637.85L191.563 635.961L156.543 600.414L141.218 601.997L128.409 595.044L112.417 596.449L117.487 602.018L122.346 607.32L125.778 612.284V615.151L100.537 618.924L72.7871 623.073L65.9756 621.47L67.3222 625.77L69.2225 628.824L71.6781 630.634L74.8463 631.256V634.141L72.6283 638.91L73.4473 642.849Z" fill="#A2A38A"/>
<path fill-rule="evenodd" clip-rule="evenodd" d="M112.417 516.803L108.574 514.047L111.678 516.468L112.417 516.803ZM67.7807 491.461H100.537L103.448 486.195V481.34H111.678L112.417 470.25L125.778 478.094L136.516 486.195L143.159 478.094L156.543 483.713L168.347 491.461L178.195 497.947L193.425 506.937L201.868 514.047H215.12L219.412 522.045H227.561L230.231 526.663V533.907L236.078 536.279L230.231 541.523L225.489 542.897L222.619 549.514L227.561 553.385L230.231 563.462L227.561 564.186L230.231 570.382V577.627L232.976 581.37L236.078 584.587L240.089 590.581L236.078 592.291L232.976 600.414V607.126L240.089 605.926L236.078 613.331L232.976 615.151V621.524L230.231 625.77L236.078 631.256L243.809 637.162V643.408V652.16L243.996 652.17L244.763 652.213L253.147 650.658L268.572 643.408L276.887 640.967L283.996 642.739L296.905 648.411L311.961 651.283L326.883 649.918L339.356 642.81L345.359 637.162L358.067 627.8L362.36 619.991L364.07 613.426L365.395 602.961L365.645 600.988L367.691 595.066L370.708 590.581L378.89 581.37L382.309 576.379L386.367 566.971L388.882 564.186L390.568 563.462L394.415 561.811L397.97 563.875L398.674 571.004L398.305 579.523L398.606 585.784L401.591 591.635L405.782 596.048L416.915 604.967L419.195 605.926L421.255 607.126L421.375 607.196L423.253 609.736L423.857 613.331L422.716 621.524L422.817 623.919L429.255 629.451L459.367 642.739H459.4L459.433 642.81L459.466 642.834L464.563 655.78L478.076 658.65L491.959 653.65L498.196 642.834L499.37 632.972L505.271 632.732L512.648 637.568L518.248 642.834L523.021 643.489L525.927 643.887L529.548 645.586L532.767 648.529L548.594 648.961L551.826 651.729L575.553 672.041L590.14 674.098L603.646 669.078L621.727 662.357L632.256 662.573L635.877 661.496L638.693 658.864L644.494 650.706L647.612 647.978L631.282 636.92L626.621 629.019L624.006 619.007L622.061 606.931L621.92 606.519L620.15 601.322L617.836 596.336L617.501 592.523L621.558 590.436L623.771 588.493L624.978 584.823L626.856 581.368L636.379 578.321L640.402 576.162L644.929 574.578L651.635 574.626L649.858 570.523L644.56 561.689L643.935 560.968L638.692 554.917L637.687 554.028L636.479 554.676L632.556 555.734L631.081 556.982L630.644 558.854L629.303 559.79L625.079 558.205L622.195 556.092L620.485 553.81L617.266 547.564L614.147 544.466L611.766 543.288L611.13 541.342L611.453 540.461L613.109 535.936L615.859 532.715L628.936 525.384L637.771 522.436L669.576 511.82L669.799 511.635L673.465 508.621L672.962 504.194L671.687 499.333L673.23 494.977L676.785 493.267L680.439 493.701L684.128 494.929L687.85 495.578L691.069 494.423L697.105 489.415L700.223 487.826L708.731 489.281L720.913 491.366L733.488 490.908L739.826 489.078L746.465 485.562L749.717 480.891L749.516 474.243L745.693 464.87L744.318 458.918L745.593 453.324L747.873 447.803L749.55 441.967L750.053 434.198L749.492 419.865L749.114 410.204L749.147 410.132L751.628 400.689L755.418 394.963L756.827 390.081L755.17 387.544L752.267 383.096L748.31 380.17L739.222 376.374L735.265 374.004L732.694 371.27L726.279 364.45L721.752 353.899L721.785 342.11L726.446 328.838L732.448 317.255L733.655 315.61L737.946 309.764L744.921 306.176L750.332 306.578L773.624 308.31L779.827 304.286L786.4 293.153L789.768 290.553L790.927 289.659L795.856 287.306L801.02 285.971L815.658 285.528L816.168 285.513L817.082 285.485L828.5 279.179L838.174 273.835L848.971 271.893L852.757 270.825L854.304 270.388L861.043 266.964L867.447 262.448L871.008 258.549L871.806 257.674L874.154 251.224L874.187 245.113L873.45 238.367L873.617 229.954L883.573 232.047L885.419 232.435L889.209 231.743L892.294 229.128L894.776 225.552L897.493 222.646L901.483 221.868L904.634 223.413L912.414 230.868L917.041 233.603L922.507 234.867L925.257 234.746L936.825 231.889L944.235 232.011L945.745 230.576L945.634 229.425L945.242 225.335L943.734 223.098L938.201 219.424L936.224 217.028L935.352 213.099L935.956 205.517L935.721 201.706L931.865 188.727L930.625 182.284L930.795 179.383L931.028 175.4L939.472 165.854L940.451 164.747L950.645 160.724L955.607 157.639L961.877 155.53L965.215 151.579L966.472 150.09L968.777 153.421L968.919 153.627L970.932 150.09L974.687 153.116L978.811 153.677L982.935 153.336L986.624 153.629L989.507 155.482L994.972 161.31L997.689 163.285L1000.5 163.602L1007.55 162.699L1010.97 163.284L1014.15 165.112L1022 171.45L1017.31 151.102L1006.38 141.708L994.407 122.961L982.839 116.049L976.938 111.285L975.591 107.857L974.355 104.712L977.34 100.043L983.509 97.0732L985.441 95.1964L988.003 92.7087L986.226 83.7709L981.364 80.5051L975.329 80.1388L973.636 79.4105L973.365 79.2944L970.835 78.2067L970.734 70.2433L966.242 71.0269L963.224 67.4418L960.441 61.9841L956.752 57.2229L952.293 43.5944L951.555 41.8308L951.987 40.0729L952.863 36.514L955.754 31.5331L956.987 29.4061L959.234 24.0617L961.078 18.275L961.815 14.0321L960.373 11.6411L955.611 11.3716L952.761 9.85133L951.305 8.03807L946.39 1.91416L943.07 0L913.052 2.60933L898.741 3.85319L897.077 3.44548L885.33 0.565264L871.995 8.50106L865.21 12.5381L864.047 12.8269L850.79 16.119L848.879 17.2232L845.727 20.5706L846.03 21.6127L847.471 22.6672L847.739 26.0256L845.492 40.7542L845.405 42.1888L844.99 49.0701L845.258 57.3707L848.98 68.9607L855.888 73.3902L859.542 80.7179L860.245 91.6141L860.204 91.5837L854.145 83.9353L850.59 81.4407L837.411 79.0926L815.415 67.9352L806.395 66.1482L797.375 66.9318L784.94 71.9681L775.379 75.8392L766.794 76.3285L741.947 72.6218L736.716 69.4278L735.71 76.5731L735.743 82.6514L733.799 86.7962L732.099 88.0732L730.445 89.3157L726.254 90.514L721.358 89.1208L714.451 89.219L707.51 91.053L702.548 94.855L699.362 101.59L699.189 102.483L698.321 106.966L697.121 109.658L696.242 111.633L690.206 116.397L680.482 118.119L673.139 113.514L671.635 112.187L665.863 107.1L656.306 103.496L638.348 104.441L596.855 106.625L586.364 105.491L564.638 103.145L558.192 102.448L550.48 101.615L531.802 107.627L519.73 124.922L513.493 115.934L508.832 115.055L504.263 117.948L497.196 122.42L496.007 122.581L490.49 123.324L485.929 122.763L481.838 124.509L476.407 132.419L472.718 140.376L470.2 148.03L467.822 155.258L464.406 163.103L461.785 169.12L459.975 170.716L452.798 174.007L444.483 175.396L441.599 173.337L436.201 175.786L434.256 178.027L432.647 181.231L428.857 185.824L426.544 191.645L424.138 191.211L422.219 190.865L420.744 191.255L414.239 198.074L410.885 200.266L407.6 201.241L400.558 201.874L397.406 203.164L392.611 210.09L389.894 219.203L388.309 223.269L386.877 226.939L381.243 229.432L376.951 224.921L373.295 216.856L368.869 210.737L357.67 213.414L352.238 212.562L347.764 210.488L342.211 207.913L340.401 205.723L339.361 203.069L337.818 200.854L334.364 200.074L323.433 202.484L284.555 201.372L254.558 200.514L253.931 200.342L250.467 199.394L232.226 183.6L227.464 181.201L222.166 179.617L216.465 179.47L210.776 180.497L205.534 181.444L200.203 180.786L170.528 166.699L160.737 165.065L139.678 168.54L135.252 168.588L113.825 163.358L108.912 162.944L108.945 166.649L108.342 169.977L107.135 172.901L105.324 175.399L104.854 187.46L104.013 189.21L101.3 194.853L95.2297 198.128L87.2153 197.848L76.2163 199.296L68.2696 206.819L61.3614 216.577L53.4478 224.874L38.4258 232.96L30.6462 238.661L26.6231 240.631L22.3307 241.092L18.8103 245.334L14.4516 255.321L9.85401 263.255L8.44945 265.681L0 270.974L2.51357 275.692L4.32417 281.274L6.30187 293.043L6.33502 293.091L6.36817 293.139L10.6606 299.059L11.8 305.557L14.5497 309.63L23.4024 308.248L18.675 299.954L23.7049 301.7L33.4291 302.378L37.9563 304.973L47.0092 306.815L53.1122 311.106L62.8696 320.826L71.1188 322.135L80.6759 321.093L85.0359 321.94L88.2884 322.572L89.483 326.783L90.7702 331.317L81.4824 348.51L51.042 371.801L45.3685 376.139L37.9576 386.051L40.5734 388.807L41.3786 391.828L40.4726 395.066L37.9576 398.401L36.281 399.512L31.3188 404.03L35.5435 409.006L37.053 410.237L37.3555 410.624L37.6234 411.058L37.8251 411.517L37.959 412.048L46.7786 422.236L56.5028 421.489L66.9645 416.443L76.3987 414.226L78.0642 413.835L83.5637 422.719L81.133 432.284L78.8363 441.323L75.936 447.961L66.1938 470.25L65.1207 486.195L67.7807 491.461ZM236.078 651.734C232.671 650.557 227.599 648.271 225.489 647.275L227.561 648.791L236.078 651.734ZM196.812 633.063L191.563 635.961L193.425 637.85L194.565 634.571L196.812 633.063Z" fill="#E5E5DF" fill-opacity="0.8"/>
<path d="M163.084 592.291L156.543 600.414L191.563 635.961L196.812 633.063L201.868 634.137L210.459 635.961L215.12 638.427L217.266 640.629L219.412 642.831L225.489 647.275C227.599 648.271 232.671 650.557 236.078 651.734L243.809 652.16V643.408V637.162L236.078 631.256L230.231 625.77L232.976 621.524V615.151L236.078 613.331L240.089 605.926L232.976 607.126V600.414L236.078 592.291L240.089 590.581L236.078 584.587L232.976 581.37L230.231 577.627V570.382L227.561 564.186L230.231 563.462L227.561 553.385L222.619 549.514L225.489 542.897L230.231 541.523L236.078 536.279L230.231 533.907V526.663L227.561 522.045H219.412L215.12 514.047H201.868L193.425 506.937L178.195 497.947L168.347 491.461L156.543 483.713L143.159 478.094L136.516 486.195L125.778 478.094L112.417 470.25L111.678 481.34H103.448V486.195L100.537 491.461H67.7807L70.083 496.018L79.1359 500.975L90.302 502.346L95.7338 504.031L108.574 514.047L112.417 516.803L134.144 526.663L159.997 570.382L163.484 574.198L168.347 576.982L171.264 577.197L171.427 577.627L171.766 578.517L169.285 584.587L163.084 592.291Z" fill="#E5E5DF" fill-opacity="0.8"/>
<path d="M163.084 592.291L156.543 600.414L191.563 635.961L196.812 633.063L201.868 634.137L210.459 635.961L215.12 638.427L217.266 640.629L219.412 642.831L225.489 647.275C227.599 648.271 232.671 650.557 236.078 651.734L243.809 652.16V643.408V637.162L236.078 631.256L230.231 625.77L232.976 621.524V615.151L236.078 613.331L240.089 605.926L232.976 607.126V600.414L236.078 592.291L240.089 590.581L236.078 584.587L232.976 581.37L230.231 577.627V570.382L227.561 564.186L230.231 563.462L227.561 553.385L222.619 549.514L225.489 542.897L230.231 541.523L236.078 536.279L230.231 533.907V526.663L227.561 522.045H219.412L215.12 514.047H201.868L193.425 506.937L178.195 497.947L168.347 491.461L156.543 483.713L143.159 478.094L136.516 486.195L125.778 478.094L112.417 470.25L111.678 481.34H103.448V486.195L100.537 491.461H67.7807L70.083 496.018L79.1359 500.975L90.302 502.346L95.7338 504.031L108.574 514.047L112.417 516.803L134.144 526.663L159.997 570.382L163.484 574.198L168.347 576.982L171.264 577.197L171.427 577.627L171.766 578.517L169.285 584.587L163.084 592.291Z" fill="#A2A38A"/>
<path d="M76.5002 610.5C77.3022 610.5 77.9891 610.214 78.5608 609.642C79.1315 609.072 79.4168 608.385 79.4168 607.583C79.4168 606.781 79.1315 606.094 78.5608 605.523C77.9891 604.952 77.3022 604.667 76.5002 604.667C75.6981 604.667 75.0117 604.952 74.441 605.523C73.8693 606.094 73.5835 606.781 73.5835 607.583C73.5835 608.385 73.8693 609.072 74.441 609.642C75.0117 610.214 75.6981 610.5 76.5002 610.5ZM76.5002 625.083C72.587 621.753 69.6645 618.66 67.7327 615.804C65.7999 612.949 64.8335 610.306 64.8335 607.875C64.8335 604.229 66.0065 601.325 68.3525 599.161C70.6975 596.998 73.4134 595.917 76.5002 595.917C79.587 595.917 82.3029 596.998 84.6479 599.161C86.9938 601.325 88.1668 604.229 88.1668 607.875C88.1668 610.306 87.2009 612.949 85.2691 615.804C83.3363 618.66 80.4134 621.753 76.5002 625.083Z" fill="#E2211C"/>
<path d="M130.5 632.5C131.302 632.5 131.989 632.214 132.561 631.643C133.131 631.072 133.417 630.385 133.417 629.583C133.417 628.781 133.131 628.094 132.561 627.523C131.989 626.952 131.302 626.667 130.5 626.667C129.698 626.667 129.012 626.952 128.441 627.523C127.869 628.094 127.583 628.781 127.583 629.583C127.583 630.385 127.869 631.072 128.441 631.643C129.012 632.214 129.698 632.5 130.5 632.5ZM130.5 647.083C126.587 643.753 123.664 640.66 121.733 637.804C119.8 634.949 118.833 632.306 118.833 629.875C118.833 626.229 120.006 623.325 122.352 621.161C124.697 618.998 127.413 617.917 130.5 617.917C133.587 617.917 136.303 618.998 138.648 621.161C140.994 623.325 142.167 626.229 142.167 629.875C142.167 632.306 141.201 634.949 139.269 637.804C137.336 640.66 134.413 643.753 130.5 647.083Z" fill="#E2211C"/>
</svg>
